<svg height="512pt" viewBox="0 0 512 512.00003" width="512pt" xmlns="http://www.w3.org/2000/svg"><path d="m496.820312 226c8.546876 0 15.738282-7.1875 15.144532-15.71875-3.863282-55.785156-29.667969-106.035156-66.9375-143.308594l-84.027344 84.027344 75 75zm0 0" fill="#ff8900"/><path d="m210.28125 61.542969c-55.785156 3.867187-106.039062 28.160156-143.308594 65.429687l-10.484375 49.515625 52.957031-7.042969 116.554688-48.21875v-44.535156c0-8.550781-7.1875-15.742187-15.71875-15.148437zm0 0" fill="#ffb751"/><path d="m66.972656 126.972656c-40.742187 40.742188-66.972656 96.992188-66.972656 159.027344l30.9375 30 30.0625-30 48.445312-116.554688zm0 0" fill="#ff9b00"/><path d="m61 286h-61c0 62.035156 26.230469 118.285156 66.972656 159.027344l54.027344 5.972656-11.617188-48.382812zm0 0" fill="#ffb751"/><path d="m109.382812 402.617188-42.410156 42.410156c40.742188 40.742187 96.992188 66.972656 159.027344 66.972656l30-30-30-31zm0 0" fill="#ff9b00"/><path d="m342.628906 402.628906-116.628906 48.371094v61c62.035156 0 118.285156-26.230469 159.027344-66.972656l10.484375-49.515625zm0 0" fill="#ff8900"/><path d="m435.308594 286h-44.570313l-48.109375 116.628906 42.398438 42.398438c37.269531-37.269532 61.5625-87.523438 65.429687-143.308594.589844-8.53125-6.597656-15.71875-15.148437-15.71875zm0 0" fill="#ff9b00"/><path d="m360.753906 286h-134.753906l65.425781 125.425781 51.203125-8.796875c4.878906-4.898437 9.546875-10.066406 13.859375-15.628906 22.605469-29.164062 34.210938-64.503906 34.25-101zm0 0" fill="#e63950"/><path d="m226 286-30 105 30 60c44.371094 0 85.824219-17.449219 116.628906-48.371094zm0 0" fill="#ae2538"/><path d="m130.585938 351.417969-21.203126 51.199219c29.875 29.878906 71.125 48.382812 116.617188 48.382812v-165zm0 0" fill="#e63950"/><path d="m121 256-60 30c0 45.492188 18.503906 86.742188 48.382812 116.617188l116.617188-116.617188zm0 0" fill="#ff637b"/><path d="m190.640625 190.640625-81.195313-21.195313c-30.699218 30.574219-48.445312 71.996094-48.445312 116.554688h165zm0 0" fill="#e63950"/><path d="m301.71875.0351562c-8.53125-.5937502-15.71875 6.5976558-15.71875 15.1484378v60.816406l75 75 84.027344-84.027344c-37.273438-37.269531-87.523438-63.070312-143.308594-66.9374998zm0 0" fill="#ff9b00"/><path d="m138.59375 146.035156c-10.769531 6.738282-20.402344 14.703125-29.148438 23.410156l116.554688 116.554688v-164.773438c-30.722656-.035156-60.675781 8.078126-87.40625 24.808594zm0 0" fill="#ff637b"/><path d="m286 61v165l116.617188-116.617188c-29.875-29.878906-71.125-48.382812-116.617188-48.382812zm0 0" fill="#e63950"/><path d="m402.617188 109.382812-116.617188 116.617188h165c0-45.492188-18.503906-86.742188-48.382812-116.617188zm0 0" fill="#ae2538"/></svg>